<svg xmlns="http://www.w3.org/2000/svg" width="1600" height="500" viewBox="0 0 1600 500">
  <rect width="100%" height="100%" fill="#0f1218"/>
  <g stroke="#7f8ea3" stroke-width="3" opacity="0.25">
    <path d="M110 80H1490M110 160H1490M110 240H1490M110 320H1490M110 400H1490"/>
    <path d="M110 80V420M230 80V420M350 80V420M470 80V420M590 80V420M710 80V420M830 80V420M950 80V420M1070 80V420M1190 80V420M1310 80V420M1430 80V420"/>
  </g>
  <g fill="#e9eef5">
    <rect x="170" y="135" width="120" height="40" rx="10"/><rect x="170" y="225" width="120" height="40" rx="10"/><rect x="170" y="315" width="120" height="40" rx="10"/>
    <rect x="330" y="135" width="40" height="220" rx="10"/><rect x="420" y="135" width="40" height="220" rx="10"/><rect x="330" y="225" width="130" height="40" rx="10"/>
  </g>
  <g fill="#86efac">
    <rect x="1000" y="135" width="40" height="220" rx="10"/><rect x="1090" y="135" width="40" height="220" rx="10"/>
    <path d="M1210 135 h120 a30 30 0 0 1 0 220 h-120" fill="none" stroke="#86efac" stroke-width="40" stroke-linecap="round" stroke-linejoin="round"/>
  </g>
  <g fill="#7aa2ff" opacity="0.9">
    <circle cx="650" cy="165" r="14"/><circle cx="760" cy="125" r="14"/><circle cx="835" cy="215" r="14"/><circle cx="750" cy="305" r="14"/><circle cx="635" cy="340" r="14"/>
    <path d="M650 165L760 125L835 215L750 305L635 340L650 165" fill="none" stroke="#7aa2ff" stroke-width="8"/>
  </g>
  <text x="120" y="455" font-family="Inter, Arial, sans-serif" font-size="40" font-weight="600" fill="#95a2b3" letter-spacing="3">modular system · rooms / nodes / paths / us</text>
</svg>